<svg xmlns="http://www.w3.org/2000/svg" width="27" height="20.571" viewBox="0 0 27 20.571"><defs><style>.a{fill:#555;}</style></defs><path class="a" d="M8.072,8.571H3.357a.826.826,0,0,0-.786.857V28.286a.826.826,0,0,0,.786.857H8.072a.826.826,0,0,0,.786-.857V9.429a.826.826,0,0,0-.786-.857Zm-.786,5.143H4.143V12H7.287v1.714Zm8.644-5.143H11.216a.826.826,0,0,0-.786.857V28.286a.826.826,0,0,0,.786.857h4.715a.826.826,0,0,0,.786-.857V9.429a.826.826,0,0,0-.786-.857Zm-.786,5.143H12V12h3.143ZM21.36,9.9,17.15,12.211a.9.9,0,0,0-.348,1.151l7.072,15.309a.758.758,0,0,0,1.055.38l4.211-2.314a.9.9,0,0,0,.348-1.151L22.416,10.277A.758.758,0,0,0,21.36,9.9Zm4,18.389a.789.789,0,1,1-.786-.857A.824.824,0,0,1,25.361,28.286Z" transform="translate(-2.571 -8.571)"/></svg>