<svg xmlns="http://www.w3.org/2000/svg" width="20" height="20" viewBox="0 0 20 20"><g transform="translate(-1122 -219)"><circle cx="10" cy="10" r="10" transform="translate(1122 219)" fill="#dc3546"/><path d="M11.66,9.3h0L8.877,6.515,11.66,3.732h0a.287.287,0,0,0,0-.405L10.346,2.012a.287.287,0,0,0-.405,0h0L7.157,4.795,4.375,2.012h0a.287.287,0,0,0-.405,0L2.655,3.326a.287.287,0,0,0,0,.405h0L5.437,6.515,2.655,9.3h0a.287.287,0,0,0,0,.405l1.315,1.315a.287.287,0,0,0,.405,0h0L7.157,8.235,9.94,11.017h0a.287.287,0,0,0,.405,0L11.66,9.7a.287.287,0,0,0,0-.405Z" transform="translate(1124.514 222.531)" fill="#fff"/></g></svg>