<svg xmlns="http://www.w3.org/2000/svg" width="38" height="36" viewBox="0 0 38 36"><g transform="translate(-1705 -229)"><rect width="38" height="36" rx="12" transform="translate(1705 229)" fill="#dc3546"/><path d="M8.7,23.724a2.41,2.41,0,0,0,2.4,2.4h9.612a2.41,2.41,0,0,0,2.4-2.4V9.306H8.7Zm2.956-8.555,1.694-1.694,2.559,2.547,2.547-2.547,1.694,1.694L17.6,17.717l2.547,2.547-1.694,1.694-2.547-2.547-2.547,2.547-1.694-1.694,2.547-2.547ZM20.116,5.7l-1.2-1.2H12.907l-1.2,1.2H7.5V8.1H24.321V5.7Z" transform="translate(1708.4 232)" fill="#fff"/></g></svg>