<svg xmlns="http://www.w3.org/2000/svg" width="27" height="24" viewBox="0 0 27 24"><defs><style>.a{fill:#0468be;}</style></defs><path class="a" d="M26.25,3A.75.75,0,0,0,27,2.25V.75A.75.75,0,0,0,26.25,0H.75A.75.75,0,0,0,0,.75v1.5A.75.75,0,0,0,.75,3H1.5V21H.75a.75.75,0,0,0-.75.75v1.5A.75.75,0,0,0,.75,24H12V20.25a.752.752,0,0,1,.75-.75h1.5a.752.752,0,0,1,.75.75V24H26.25a.75.75,0,0,0,.75-.75v-1.5a.75.75,0,0,0-.75-.75H25.5V3ZM12,5.1a.645.645,0,0,1,.6-.6h1.8a.645.645,0,0,1,.6.6V6.9a.645.645,0,0,1-.6.6H12.6a.645.645,0,0,1-.6-.6Zm0,4.5a.645.645,0,0,1,.6-.6h1.8a.645.645,0,0,1,.6.6v1.8a.645.645,0,0,1-.6.6H12.6a.645.645,0,0,1-.6-.6ZM6,5.1a.645.645,0,0,1,.6-.6H8.4a.645.645,0,0,1,.6.6V6.9a.645.645,0,0,1-.6.6H6.6A.645.645,0,0,1,6,6.9ZM8.4,12H6.6a.645.645,0,0,1-.6-.6V9.6A.645.645,0,0,1,6.6,9H8.4a.645.645,0,0,1,.6.6v1.8A.645.645,0,0,1,8.4,12ZM9,18a4.5,4.5,0,0,1,9,0Zm12-6.6a.645.645,0,0,1-.6.6H18.6a.645.645,0,0,1-.6-.6V9.6a.645.645,0,0,1,.6-.6h1.8a.645.645,0,0,1,.6.6Zm0-4.5a.645.645,0,0,1-.6.6H18.6a.645.645,0,0,1-.6-.6V5.1a.645.645,0,0,1,.6-.6h1.8a.645.645,0,0,1,.6.6Z"/></svg>