<svg xmlns="http://www.w3.org/2000/svg" width="20" height="20" viewBox="0 0 20 20"><g transform="translate(-1122 -219)"><circle cx="10" cy="10" r="10" transform="translate(1122 219)" fill="#f1e52f"/><path d="M12.353,7.975a6.225,6.225,0,0,0,2.728-5.291,6.973,6.973,0,0,0-.041-.756H4.54a6.961,6.961,0,0,0-.041.756A6.225,6.225,0,0,0,7.227,7.975,6.225,6.225,0,0,0,4.5,13.267a6.969,6.969,0,0,0,.041.756h10.5a6.967,6.967,0,0,0,.041-.756,6.225,6.225,0,0,0-2.728-5.291Zm-6.72,5.291c0-2.208.947-4.08,2.646-4.7V7.381c-1.7-.618-2.646-2.49-2.646-4.7h8.315c0,2.208-.947,4.08-2.646,4.7V8.569c1.7.618,2.646,2.49,2.646,4.7H5.633Zm5.429-3.43a1.546,1.546,0,0,1-.893-1.481V7.6a1.546,1.546,0,0,1,.895-1.484,3.285,3.285,0,0,0,1.146-1.161H7.371A3.285,3.285,0,0,0,8.519,6.114a1.546,1.546,0,0,1,.893,1.481v.759a1.546,1.546,0,0,1-.895,1.484,3.747,3.747,0,0,0-1.69,2.673h5.925a3.747,3.747,0,0,0-1.692-2.674Z" transform="translate(1122.177 220.647)" fill="#fff"/></g></svg>