<svg xmlns="http://www.w3.org/2000/svg" width="38" height="36" viewBox="0 0 38 36"><g transform="translate(-1777 -537)"><rect width="38" height="36" rx="12" transform="translate(1777 537)" fill="#0468be"/><path d="M16.015,9.025H10.471V3.482A1.232,1.232,0,0,0,9.239,2.25H8.007A1.232,1.232,0,0,0,6.775,3.482V9.025H1.232A1.232,1.232,0,0,0,0,10.257v1.232a1.232,1.232,0,0,0,1.232,1.232H6.775v5.544A1.232,1.232,0,0,0,8.007,19.5H9.239a1.232,1.232,0,0,0,1.232-1.232V12.721h5.544a1.232,1.232,0,0,0,1.232-1.232V10.257A1.232,1.232,0,0,0,16.015,9.025Z" transform="translate(1786.95 544)" fill="#fff"/></g></svg>