<svg xmlns="http://www.w3.org/2000/svg" width="27" height="27" viewBox="0 0 27 27"><defs><style>.a{fill:#0468be;}</style></defs><path class="a" d="M27.72,9.72a.564.564,0,0,0-.563-.563H19.845a.564.564,0,0,1-.562-.562V1.283A.564.564,0,0,0,18.72.72h-9a.564.564,0,0,0-.563.562V8.6a.564.564,0,0,1-.562.563H1.283A.564.564,0,0,0,.72,9.72v9a.564.564,0,0,0,.562.563H8.6a.564.564,0,0,1,.563.562v7.313a.564.564,0,0,0,.563.563h9a.564.564,0,0,0,.563-.563V19.845a.564.564,0,0,1,.562-.562h7.313a.564.564,0,0,0,.563-.562Z" transform="translate(-0.72 -0.72)"/></svg>